<?xml version="1.0" standalone="no"?>
<!DOCTYPE svg PUBLIC "-//W3C//DTD SVG 20010904//EN"
 "http://www.w3.org/TR/2001/REC-SVG-20010904/DTD/svg10.dtd">
<svg version="1.0" xmlns="http://www.w3.org/2000/svg"
 width="700.000000pt" height="700.000000pt" viewBox="0 0 700.000000 700.000000"
 preserveAspectRatio="xMidYMid meet">
<metadata>
Created by potrace 1.14, written by Peter Selinger 2001-2017
</metadata>
<g transform="translate(0.000000,700.000000) scale(0.100000,-0.100000)"
fill="#000000" stroke="none">
<path d="M1632 4356 c-118 -23 -232 -83 -317 -169 -60 -60 -81 -90 -123 -177
-59 -124 -78 -195 -92 -354 -13 -138 -1 -315 30 -443 65 -270 233 -449 468
-498 228 -49 418 27 521 206 l31 54 0 -283 c0 -307 -2 -323 -56 -374 -35 -32
-91 -54 -168 -63 -52 -7 -56 -9 -56 -34 l0 -26 435 0 435 0 0 26 c0 24 -5 27
-47 34 -65 9 -99 29 -120 68 -17 30 -18 93 -18 997 0 531 3 980 7 998 7 28 4
34 -17 44 -20 9 -29 6 -62 -19 -56 -44 -120 -79 -196 -108 -87 -32 -107 -32
-143 6 -39 42 -102 77 -177 101 -82 25 -239 32 -335 14z m395 -91 c34 -15 75
-41 92 -59 l32 -33 -3 -559 -3 -559 -28 -53 c-34 -65 -98 -131 -152 -157 -22
-10 -68 -21 -102 -23 -110 -8 -205 53 -264 169 -63 127 -96 370 -86 639 15
367 93 576 242 647 69 33 184 28 272 -12z"/>
<path d="M5078 4360 c-79 -13 -188 -52 -256 -92 -73 -43 -198 -167 -241 -241
-118 -201 -153 -540 -85 -812 8 -33 36 -102 61 -154 62 -127 156 -222 275
-280 125 -61 190 -76 348 -76 115 0 145 3 201 23 169 58 296 173 380 342 33
67 36 85 13 94 -29 11 -43 6 -58 -21 -51 -99 -177 -193 -293 -219 -201 -44
-376 41 -467 229 -58 117 -70 180 -70 367 l-1 165 458 3 c251 1 457 6 457 10
0 4 -5 55 -10 114 -27 288 -143 453 -366 524 -87 28 -251 39 -346 24z m192
-75 c91 -47 160 -237 160 -440 l0 -95 -276 0 -277 0 7 72 c10 97 48 243 80
307 33 64 88 126 135 151 44 23 131 26 171 5z"/>
<path d="M3155 4337 c-83 -13 -156 -17 -298 -15 l-187 3 0 -31 c0 -30 2 -32
50 -38 61 -8 110 -47 136 -109 17 -38 19 -89 25 -587 6 -579 7 -588 57 -686
111 -217 556 -235 766 -31 29 29 67 77 84 107 l32 55 0 -147 c0 -82 2 -148 5
-148 3 0 47 8 97 17 66 12 153 17 300 17 l208 1 0 27 c0 24 -5 28 -37 33 -62
11 -73 15 -109 47 -64 57 -64 52 -64 821 0 606 -2 688 -15 683 -55 -21 -246
-37 -413 -34 l-182 3 0 -32 c0 -31 2 -33 33 -33 58 0 118 -39 147 -95 l25 -49
3 -466 c4 -514 2 -532 -56 -643 -55 -106 -143 -170 -252 -183 -107 -12 -192
35 -222 124 -8 27 -13 221 -17 722 l-6 685 -110 -18z"/>
</g>
</svg>
